<?xml version="1.0" encoding="UTF-8"?>
<svg xmlns="http://www.w3.org/2000/svg" width="800" height="600" viewBox="0 0 800 600" role="img">

    
  <defs>
    <linearGradient id="bg" x1="0" y1="0" x2="1" y2="1">
      <stop offset="0%" stop-color="#071226"/>
      <stop offset="55%" stop-color="#0A1C3A"/>
      <stop offset="100%" stop-color="#06101f"/>
    </linearGradient>
    <linearGradient id="cyanFill" x1="0" y1="0" x2="0" y2="1">
      <stop offset="0%" stop-color="#00B6FF" stop-opacity="0.35"/>
      <stop offset="100%" stop-color="#00B6FF" stop-opacity="0.02"/>
    </linearGradient>
    <linearGradient id="tealFill" x1="0" y1="0" x2="0" y2="1">
      <stop offset="0%" stop-color="#00FFD1" stop-opacity="0.28"/>
      <stop offset="100%" stop-color="#00FFD1" stop-opacity="0.02"/>
    </linearGradient>
    <linearGradient id="magentaFill" x1="0" y1="0" x2="0" y2="1">
      <stop offset="0%" stop-color="#D946EF" stop-opacity="0.3"/>
      <stop offset="100%" stop-color="#D946EF" stop-opacity="0.02"/>
    </linearGradient>
    <linearGradient id="cloudUp" x1="0" y1="0" x2="0" y2="1">
      <stop offset="0%" stop-color="#00FFD1" stop-opacity="0.35"/>
      <stop offset="100%" stop-color="#00FFD1" stop-opacity="0.08"/>
    </linearGradient>
    <linearGradient id="cloudDn" x1="0" y1="0" x2="0" y2="1">
      <stop offset="0%" stop-color="#FF2D95" stop-opacity="0.28"/>
      <stop offset="100%" stop-color="#FF2D95" stop-opacity="0.06"/>
    </linearGradient>
    <pattern id="grid" width="40" height="40" patternUnits="userSpaceOnUse">
      <path d="M40 0H0V40" fill="none" stroke="#00B6FF" stroke-opacity="0.07" stroke-width="1"/>
    </pattern>
  </defs>
  <rect width="800" height="600" fill="url(#bg)"/>
  <rect x="48" y="56" width="724" height="504" fill="url(#grid)" rx="8"/>
  <rect x="48" y="56" width="724" height="504" fill="none" stroke="#00B6FF" stroke-opacity="0.25" rx="8"/>
  <text x="48" y="28" fill="#00FFD1" font-family="ui-monospace, SFMono-Regular, Menlo, monospace" font-size="13" font-weight="700" letter-spacing="2">AVERAGE VOLUME</text>
  <text x="48" y="46" fill="#00B6FF" fill-opacity="0.7" font-family="ui-monospace, SFMono-Regular, Menlo, monospace" font-size="10" letter-spacing="1.5">VOLUME / FLOW</text>
  <circle cx="764" cy="28" r="5" fill="#00FFD1"/>
  <text x="752" y="32" text-anchor="end" fill="#00FFD1" fill-opacity="0.8" font-family="ui-monospace, SFMono-Regular, Menlo, monospace" font-size="9" letter-spacing="1">LIVE</text>
    <path d="M48.0,225.3 L66.6,263.1 L85.1,258.9 L103.7,273.3 L122.3,284.4 L140.8,306.2 L159.4,273.3 L177.9,235.6 L196.5,198.9 L215.1,165.2 L233.6,166.0 L252.2,144.7 L270.8,167.3 L289.3,134.4 L307.9,132.9 L326.5,150.1 L345.0,162.9 L363.6,177.6 L382.2,144.9 L400.7,146.4 L419.3,145.1 L437.8,105.8 L456.4,147.6 L475.0,112.3 L493.5,151.9 L512.1,160.5 L530.7,197.0 L549.2,219.1 L567.8,177.1 L586.4,198.4 L604.9,206.9 L623.5,230.1 L642.1,239.1 L660.6,197.1 L679.2,196.4 L697.7,179.3 L716.3,204.2 L734.9,231.2 L753.4,193.0 L772.0,193.0" fill="none" stroke="#00FFD1" stroke-width="2.2"/>
    
    <line x1="48" y1="356" x2="772" y2="356" stroke="#00B6FF" stroke-opacity="0.25"/>
    <rect x="42.1175" y="471" width="11.765" height="89" fill="#00B6FF" opacity="0.75"/>
<rect x="60.68160256410257" y="367" width="11.765" height="193" fill="#D946EF" opacity="0.75"/>
<rect x="79.24570512820512" y="449" width="11.765" height="111" fill="#00B6FF" opacity="0.75"/>
<rect x="97.80980769230769" y="498" width="11.765" height="62" fill="#D946EF" opacity="0.75"/>
<rect x="116.37391025641026" y="487" width="11.765" height="73" fill="#D946EF" opacity="0.75"/>
<rect x="134.93801282051282" y="432" width="11.765" height="128" fill="#D946EF" opacity="0.75"/>
<rect x="153.5021153846154" y="459" width="11.765" height="101" fill="#00B6FF" opacity="0.75"/>
<rect x="172.06621794871796" y="383" width="11.765" height="177" fill="#00B6FF" opacity="0.75"/>
<rect x="190.6303205128205" y="455" width="11.765" height="105" fill="#00B6FF" opacity="0.75"/>
<rect x="209.1944230769231" y="457" width="11.765" height="103" fill="#00B6FF" opacity="0.75"/>
<rect x="227.75852564102564" y="462" width="11.765" height="98" fill="#D946EF" opacity="0.75"/>
<rect x="246.3226282051282" y="447" width="11.765" height="113" fill="#00B6FF" opacity="0.75"/>
<rect x="264.8867307692308" y="380" width="11.765" height="180" fill="#D946EF" opacity="0.75"/>
<rect x="283.4508333333333" y="501" width="11.765" height="59" fill="#00B6FF" opacity="0.75"/>
<rect x="302.0149358974359" y="500" width="11.765" height="60" fill="#00B6FF" opacity="0.75"/>
<rect x="320.57903846153846" y="389" width="11.765" height="171" fill="#D946EF" opacity="0.75"/>
<rect x="339.143141025641" y="485" width="11.765" height="75" fill="#D946EF" opacity="0.75"/>
<rect x="357.7072435897436" y="404" width="11.765" height="156" fill="#D946EF" opacity="0.75"/>
<rect x="376.2713461538462" y="428" width="11.765" height="132" fill="#00B6FF" opacity="0.75"/>
<rect x="394.83544871794874" y="436" width="11.765" height="124" fill="#D946EF" opacity="0.75"/>
<rect x="413.3995512820513" y="466" width="11.765" height="94" fill="#00B6FF" opacity="0.75"/>
<rect x="431.9636538461538" y="467" width="11.765" height="93" fill="#00B6FF" opacity="0.75"/>
<rect x="450.5277564102564" y="501" width="11.765" height="59" fill="#D946EF" opacity="0.75"/>
<rect x="469.091858974359" y="382" width="11.765" height="178" fill="#00B6FF" opacity="0.75"/>
<rect x="487.65596153846155" y="436" width="11.765" height="124" fill="#D946EF" opacity="0.75"/>
<rect x="506.2200641025642" y="445" width="11.765" height="115" fill="#D946EF" opacity="0.75"/>
<rect x="524.7841666666666" y="442" width="11.765" height="118" fill="#D946EF" opacity="0.75"/>
<rect x="543.3482692307692" y="482" width="11.765" height="78" fill="#D946EF" opacity="0.75"/>
<rect x="561.9123717948718" y="449" width="11.765" height="111" fill="#00B6FF" opacity="0.75"/>
<rect x="580.4764743589743" y="430" width="11.765" height="130" fill="#D946EF" opacity="0.75"/>
<rect x="599.0405769230769" y="443" width="11.765" height="117" fill="#D946EF" opacity="0.75"/>
<rect x="617.6046794871794" y="458" width="11.765" height="102" fill="#D946EF" opacity="0.75"/>
<rect x="636.1687820512819" y="492" width="11.765" height="68" fill="#D946EF" opacity="0.75"/>
<rect x="654.7328846153846" y="383" width="11.765" height="177" fill="#00B6FF" opacity="0.75"/>
<rect x="673.2969871794871" y="390" width="11.765" height="170" fill="#00B6FF" opacity="0.75"/>
<rect x="691.8610897435897" y="367" width="11.765" height="193" fill="#00B6FF" opacity="0.75"/>
<rect x="710.4251923076923" y="444" width="11.765" height="116" fill="#D946EF" opacity="0.75"/>
<rect x="728.9892948717948" y="479" width="11.765" height="81" fill="#D946EF" opacity="0.75"/>
<rect x="747.5533974358974" y="382" width="11.765" height="178" fill="#00B6FF" opacity="0.75"/>
<rect x="766.1175" y="364" width="11.765" height="196" fill="#D946EF" opacity="0.75"/>
  
</svg>
