<?xml version="1.0" encoding="UTF-8"?>
<svg xmlns="http://www.w3.org/2000/svg" width="800" height="600" viewBox="0 0 800 600" role="img">

    
  <defs>
    <linearGradient id="bg" x1="0" y1="0" x2="1" y2="1">
      <stop offset="0%" stop-color="#071226"/>
      <stop offset="55%" stop-color="#0A1C3A"/>
      <stop offset="100%" stop-color="#06101f"/>
    </linearGradient>
    <linearGradient id="cyanFill" x1="0" y1="0" x2="0" y2="1">
      <stop offset="0%" stop-color="#00B6FF" stop-opacity="0.35"/>
      <stop offset="100%" stop-color="#00B6FF" stop-opacity="0.02"/>
    </linearGradient>
    <linearGradient id="tealFill" x1="0" y1="0" x2="0" y2="1">
      <stop offset="0%" stop-color="#00FFD1" stop-opacity="0.28"/>
      <stop offset="100%" stop-color="#00FFD1" stop-opacity="0.02"/>
    </linearGradient>
    <linearGradient id="magentaFill" x1="0" y1="0" x2="0" y2="1">
      <stop offset="0%" stop-color="#D946EF" stop-opacity="0.3"/>
      <stop offset="100%" stop-color="#D946EF" stop-opacity="0.02"/>
    </linearGradient>
    <linearGradient id="cloudUp" x1="0" y1="0" x2="0" y2="1">
      <stop offset="0%" stop-color="#00FFD1" stop-opacity="0.35"/>
      <stop offset="100%" stop-color="#00FFD1" stop-opacity="0.08"/>
    </linearGradient>
    <linearGradient id="cloudDn" x1="0" y1="0" x2="0" y2="1">
      <stop offset="0%" stop-color="#FF2D95" stop-opacity="0.28"/>
      <stop offset="100%" stop-color="#FF2D95" stop-opacity="0.06"/>
    </linearGradient>
    <pattern id="grid" width="40" height="40" patternUnits="userSpaceOnUse">
      <path d="M40 0H0V40" fill="none" stroke="#00B6FF" stroke-opacity="0.07" stroke-width="1"/>
    </pattern>
  </defs>
  <rect width="800" height="600" fill="url(#bg)"/>
  <rect x="48" y="56" width="724" height="504" fill="url(#grid)" rx="8"/>
  <rect x="48" y="56" width="724" height="504" fill="none" stroke="#00B6FF" stroke-opacity="0.25" rx="8"/>
  <text x="48" y="28" fill="#00FFD1" font-family="ui-monospace, SFMono-Regular, Menlo, monospace" font-size="13" font-weight="700" letter-spacing="2">BALANCE OF POWER</text>
  <text x="48" y="46" fill="#00B6FF" fill-opacity="0.7" font-family="ui-monospace, SFMono-Regular, Menlo, monospace" font-size="10" letter-spacing="1.5">OSCILLATOR PANEL</text>
  <circle cx="764" cy="28" r="5" fill="#00FFD1"/>
  <text x="752" y="32" text-anchor="end" fill="#00FFD1" fill-opacity="0.8" font-family="ui-monospace, SFMono-Regular, Menlo, monospace" font-size="9" letter-spacing="1">LIVE</text>
    <line x1="48" y1="215.20000000000005" x2="772" y2="215.20000000000005" stroke="#FF2D95" stroke-opacity="0.55" stroke-width="1" stroke-dasharray="4 4"/><text x="54" y="211.20000000000005" fill="#FF2D95" fill-opacity="0.85" font-family="ui-monospace, Menlo, monospace" font-size="9">70</text>
    <line x1="48" y1="400.8" x2="772" y2="400.8" stroke="#00FFD1" stroke-opacity="0.55" stroke-width="1" stroke-dasharray="4 4"/><text x="54" y="396.8" fill="#00FFD1" fill-opacity="0.85" font-family="ui-monospace, Menlo, monospace" font-size="9">30</text>
    <line x1="48" y1="308" x2="772" y2="308" stroke="#00B6FF" stroke-opacity="0.55" stroke-width="1" stroke-dasharray="4 4"/><text x="54" y="304" fill="#00B6FF" fill-opacity="0.85" font-family="ui-monospace, Menlo, monospace" font-size="9">50</text>
    <path d="M48.0,308.0 L60.3,279.1 L72.5,295.8 L84.8,318.9 L97.1,305.3 L109.4,274.1 L121.6,235.6 L133.9,237.5 L146.2,236.1 L158.4,225.1 L170.7,205.9 L183.0,172.9 L195.3,198.6 L207.5,237.3 L219.8,215.8 L232.1,253.8 L244.3,258.7 L256.6,286.4 L268.9,330.0 L281.2,337.9 L293.4,359.9 L305.7,368.7 L318.0,367.4 L330.2,406.3 L342.5,356.7 L354.8,330.7 L367.1,359.4 L379.3,307.1 L391.6,343.1 L403.9,371.7 L416.1,357.8 L428.4,355.1 L440.7,352.8 L452.9,345.9 L465.2,334.1 L477.5,360.9 L489.8,368.1 L502.0,364.0 L514.3,360.9 L526.6,395.5 L538.8,416.3 L551.1,446.9 L563.4,435.0 L575.7,404.0 L587.9,434.9 L600.2,451.4 L612.5,423.4 L624.7,431.0 L637.0,396.2 L649.3,372.9 L661.6,357.5 L673.8,318.1 L686.1,345.7 L698.4,335.1 L710.6,300.1 L722.9,275.1 L735.2,283.6 L747.5,256.5 L759.7,300.2 L772.0,286.2 L772.0,308.0 L759.7,308.0 L747.5,308.0 L735.2,308.0 L722.9,308.0 L710.6,308.0 L698.4,308.0 L686.1,308.0 L673.8,308.0 L661.6,308.0 L649.3,308.0 L637.0,308.0 L624.7,308.0 L612.5,308.0 L600.2,308.0 L587.9,308.0 L575.7,308.0 L563.4,308.0 L551.1,308.0 L538.8,308.0 L526.6,308.0 L514.3,308.0 L502.0,308.0 L489.8,308.0 L477.5,308.0 L465.2,308.0 L452.9,308.0 L440.7,308.0 L428.4,308.0 L416.1,308.0 L403.9,308.0 L391.6,308.0 L379.3,308.0 L367.1,308.0 L354.8,308.0 L342.5,308.0 L330.2,308.0 L318.0,308.0 L305.7,308.0 L293.4,308.0 L281.2,308.0 L268.9,308.0 L256.6,308.0 L244.3,308.0 L232.1,308.0 L219.8,308.0 L207.5,308.0 L195.3,308.0 L183.0,308.0 L170.7,308.0 L158.4,308.0 L146.2,308.0 L133.9,308.0 L121.6,308.0 L109.4,308.0 L97.1,308.0 L84.8,308.0 L72.5,308.0 L60.3,308.0 L48.0,308.0 Z" fill="url(#magentaFill)" opacity="0.5"/>
    <path d="M48.0,308.0 L60.3,279.1 L72.5,295.8 L84.8,318.9 L97.1,305.3 L109.4,274.1 L121.6,235.6 L133.9,237.5 L146.2,236.1 L158.4,225.1 L170.7,205.9 L183.0,172.9 L195.3,198.6 L207.5,237.3 L219.8,215.8 L232.1,253.8 L244.3,258.7 L256.6,286.4 L268.9,330.0 L281.2,337.9 L293.4,359.9 L305.7,368.7 L318.0,367.4 L330.2,406.3 L342.5,356.7 L354.8,330.7 L367.1,359.4 L379.3,307.1 L391.6,343.1 L403.9,371.7 L416.1,357.8 L428.4,355.1 L440.7,352.8 L452.9,345.9 L465.2,334.1 L477.5,360.9 L489.8,368.1 L502.0,364.0 L514.3,360.9 L526.6,395.5 L538.8,416.3 L551.1,446.9 L563.4,435.0 L575.7,404.0 L587.9,434.9 L600.2,451.4 L612.5,423.4 L624.7,431.0 L637.0,396.2 L649.3,372.9 L661.6,357.5 L673.8,318.1 L686.1,345.7 L698.4,335.1 L710.6,300.1 L722.9,275.1 L735.2,283.6 L747.5,256.5 L759.7,300.2 L772.0,286.2" fill="none" stroke="#D946EF" stroke-width="2.5"/>
    
  
</svg>
