<?xml version="1.0" encoding="UTF-8"?>
<svg xmlns="http://www.w3.org/2000/svg" width="800" height="600" viewBox="0 0 800 600" role="img">

    
  <defs>
    <linearGradient id="bg" x1="0" y1="0" x2="1" y2="1">
      <stop offset="0%" stop-color="#071226"/>
      <stop offset="55%" stop-color="#0A1C3A"/>
      <stop offset="100%" stop-color="#06101f"/>
    </linearGradient>
    <linearGradient id="cyanFill" x1="0" y1="0" x2="0" y2="1">
      <stop offset="0%" stop-color="#00B6FF" stop-opacity="0.35"/>
      <stop offset="100%" stop-color="#00B6FF" stop-opacity="0.02"/>
    </linearGradient>
    <linearGradient id="tealFill" x1="0" y1="0" x2="0" y2="1">
      <stop offset="0%" stop-color="#00FFD1" stop-opacity="0.28"/>
      <stop offset="100%" stop-color="#00FFD1" stop-opacity="0.02"/>
    </linearGradient>
    <linearGradient id="magentaFill" x1="0" y1="0" x2="0" y2="1">
      <stop offset="0%" stop-color="#D946EF" stop-opacity="0.3"/>
      <stop offset="100%" stop-color="#D946EF" stop-opacity="0.02"/>
    </linearGradient>
    <linearGradient id="cloudUp" x1="0" y1="0" x2="0" y2="1">
      <stop offset="0%" stop-color="#00FFD1" stop-opacity="0.35"/>
      <stop offset="100%" stop-color="#00FFD1" stop-opacity="0.08"/>
    </linearGradient>
    <linearGradient id="cloudDn" x1="0" y1="0" x2="0" y2="1">
      <stop offset="0%" stop-color="#FF2D95" stop-opacity="0.28"/>
      <stop offset="100%" stop-color="#FF2D95" stop-opacity="0.06"/>
    </linearGradient>
    <pattern id="grid" width="40" height="40" patternUnits="userSpaceOnUse">
      <path d="M40 0H0V40" fill="none" stroke="#00B6FF" stroke-opacity="0.07" stroke-width="1"/>
    </pattern>
  </defs>
  <rect width="800" height="600" fill="url(#bg)"/>
  <rect x="48" y="56" width="724" height="504" fill="url(#grid)" rx="8"/>
  <rect x="48" y="56" width="724" height="504" fill="none" stroke="#00B6FF" stroke-opacity="0.25" rx="8"/>
  <text x="48" y="28" fill="#00FFD1" font-family="ui-monospace, SFMono-Regular, Menlo, monospace" font-size="13" font-weight="700" letter-spacing="2">PARABOLIC SAR</text>
  <text x="48" y="46" fill="#00B6FF" fill-opacity="0.7" font-family="ui-monospace, SFMono-Regular, Menlo, monospace" font-size="10" letter-spacing="1.5">PARABOLIC SAR</text>
  <circle cx="764" cy="28" r="5" fill="#00FFD1"/>
  <text x="752" y="32" text-anchor="end" fill="#00FFD1" fill-opacity="0.8" font-family="ui-monospace, SFMono-Regular, Menlo, monospace" font-size="9" letter-spacing="1">LIVE</text>
    <line x1="48" y1="444.12106647844905" x2="48" y2="480.978314648116" stroke="#00FFD1" stroke-width="1" opacity="0.85"/>
        <rect x="43.25952380952381" y="459.4143533852885" width="9.480952380952381" height="1.5" fill="#00FFD1" opacity="0.9"/>
<line x1="65.65853658536585" y1="429.22200389184235" x2="65.65853658536585" y2="499.6570816361345" stroke="#00FFD1" stroke-width="1" opacity="0.85"/>
        <rect x="60.918060394889665" y="438.5010906100482" width="9.480952380952381" height="35.84038722070977" fill="#00FFD1" opacity="0.9"/>
<line x1="83.3170731707317" y1="384.13178484035757" x2="83.3170731707317" y2="465.45703828487154" stroke="#00FFD1" stroke-width="1" opacity="0.85"/>
        <rect x="78.57659698025552" y="392.51439706528015" width="9.480952380952381" height="36.69129768028574" fill="#00FFD1" opacity="0.9"/>
<line x1="100.97560975609755" y1="330.1112782259027" x2="100.97560975609755" y2="430.0515316269633" stroke="#00FFD1" stroke-width="1" opacity="0.85"/>
        <rect x="96.23513356562137" y="343.0873770953162" width="9.480952380952381" height="57.727396780783295" fill="#00FFD1" opacity="0.9"/>
<line x1="118.63414634146342" y1="315.70718907691196" x2="118.63414634146342" y2="375.8488668576149" stroke="#00FFD1" stroke-width="1" opacity="0.85"/>
        <rect x="113.89367015098723" y="322.6692179968096" width="9.480952380952381" height="29.342014898115508" fill="#00FFD1" opacity="0.9"/>
<line x1="136.2926829268293" y1="315.53809993530285" x2="136.2926829268293" y2="387.74479947451937" stroke="#FF2D95" stroke-width="1" opacity="0.85"/>
        <rect x="131.5522067363531" y="337.1507993133255" width="9.480952380952381" height="27.907475749174637" fill="#FF2D95" opacity="0.9"/>
<line x1="153.9512195121951" y1="291.4982869967238" x2="153.9512195121951" y2="403.7597412540463" stroke="#00FFD1" stroke-width="1" opacity="0.85"/>
        <rect x="149.21074332171892" y="313.8646987249829" width="9.480952380952381" height="65.22752809001662" fill="#00FFD1" opacity="0.9"/>
<line x1="171.609756097561" y1="265.6782358517908" x2="171.609756097561" y2="343.2442908424841" stroke="#00FFD1" stroke-width="1" opacity="0.85"/>
        <rect x="166.8692799070848" y="287.6527772653677" width="9.480952380952381" height="39.22867215189899" fill="#00FFD1" opacity="0.9"/>
<line x1="189.26829268292684" y1="250.51347868881328" x2="189.26829268292684" y2="305.17188353014546" stroke="#00FFD1" stroke-width="1" opacity="0.85"/>
        <rect x="184.52781649245065" y="256.21200356306554" width="9.480952380952381" height="24.773900723778297" fill="#00FFD1" opacity="0.9"/>
<line x1="206.9268292682927" y1="213.77953537051042" x2="206.9268292682927" y2="279.25039454325275" stroke="#FF2D95" stroke-width="1" opacity="0.85"/>
        <rect x="202.1863530778165" y="246.36035667430718" width="9.480952380952381" height="5.86920040638114" fill="#FF2D95" opacity="0.9"/>
<line x1="224.58536585365854" y1="170.51794524578258" x2="224.58536585365854" y2="248.4641818583097" stroke="#00FFD1" stroke-width="1" opacity="0.85"/>
        <rect x="219.84488966318236" y="201.9186894543198" width="9.480952380952381" height="35.387908631394964" fill="#00FFD1" opacity="0.9"/>
<line x1="242.2439024390244" y1="164.1471917653614" x2="242.2439024390244" y2="259.5089749609426" stroke="#FF2D95" stroke-width="1" opacity="0.85"/>
        <rect x="237.5034262485482" y="193.69232873237155" width="9.480952380952381" height="59.3096043393511" fill="#FF2D95" opacity="0.9"/>
<line x1="259.9024390243902" y1="185.82165051172717" x2="259.9024390243902" y2="261.97308042948" stroke="#00FFD1" stroke-width="1" opacity="0.85"/>
        <rect x="255.16196283391403" y="215.9212411521995" width="9.480952380952381" height="28.102551034978887" fill="#00FFD1" opacity="0.9"/>
<line x1="277.5609756097561" y1="181.9603431384233" x2="277.5609756097561" y2="251.30644073744674" stroke="#FF2D95" stroke-width="1" opacity="0.85"/>
        <rect x="272.8204994192799" y="205.6886225620895" width="9.480952380952381" height="27.143366487750427" fill="#FF2D95" opacity="0.9"/>
<line x1="295.219512195122" y1="188.64681077712476" x2="295.219512195122" y2="258.1641624461327" stroke="#FF2D95" stroke-width="1" opacity="0.85"/>
        <rect x="290.47903600464576" y="221.13774889219667" width="9.480952380952381" height="8.97062931092745" fill="#FF2D95" opacity="0.9"/>
<line x1="312.8780487804878" y1="201.80752177087237" x2="312.8780487804878" y2="247.80900609416182" stroke="#00FFD1" stroke-width="1" opacity="0.85"/>
        <rect x="308.1375725900116" y="219.78170459418317" width="9.480952380952381" height="14.860991576955485" fill="#00FFD1" opacity="0.9"/>
<line x1="330.5365853658537" y1="167.17400752109302" x2="330.5365853658537" y2="216.75365821771163" stroke="#00FFD1" stroke-width="1" opacity="0.85"/>
        <rect x="325.79610917537747" y="186.66919950793107" width="9.480952380952381" height="25.404504886430516" fill="#00FFD1" opacity="0.9"/>
<line x1="348.1951219512195" y1="125.82993495910199" x2="348.1951219512195" y2="190.2088157890355" stroke="#00FFD1" stroke-width="1" opacity="0.85"/>
        <rect x="343.4546457607433" y="160.04844563671156" width="9.480952380952381" height="16.04515258364654" fill="#00FFD1" opacity="0.9"/>
<line x1="365.8536585365854" y1="131.6636371279762" x2="365.8536585365854" y2="217.10862938088798" stroke="#FF2D95" stroke-width="1" opacity="0.85"/>
        <rect x="361.11318234610917" y="146.45570413925094" width="9.480952380952381" height="56.17695778229654" fill="#FF2D95" opacity="0.9"/>
<line x1="383.5121951219512" y1="154.08103759662737" x2="383.5121951219512" y2="221.28245745824302" stroke="#00FFD1" stroke-width="1" opacity="0.85"/>
        <rect x="378.771718931475" y="179.0804636538527" width="9.480952380952381" height="20.252591309726142" fill="#00FFD1" opacity="0.9"/>
<line x1="401.1707317073171" y1="178.1994728840716" x2="401.1707317073171" y2="193.24531188754196" stroke="#00FFD1" stroke-width="1" opacity="0.85"/>
        <rect x="396.4302555168409" y="180.24722216423595" width="9.480952380952381" height="1.5" fill="#00FFD1" opacity="0.9"/>
<line x1="418.8292682926829" y1="143.94393971958527" x2="418.8292682926829" y2="194.54813319371567" stroke="#00FFD1" stroke-width="1" opacity="0.85"/>
        <rect x="414.0887921022067" y="178.78992214195938" width="9.480952380952381" height="2.2971159139093515" fill="#00FFD1" opacity="0.9"/>
<line x1="436.4878048780488" y1="148.30052076526937" x2="436.4878048780488" y2="228.51554706432978" stroke="#FF2D95" stroke-width="1" opacity="0.85"/>
        <rect x="431.7473286875726" y="170.73654639648333" width="9.480952380952381" height="35.3695237291617" fill="#FF2D95" opacity="0.9"/>
<line x1="454.1463414634147" y1="179.88575639972646" x2="454.1463414634147" y2="237.98108618883032" stroke="#00FFD1" stroke-width="1" opacity="0.85"/>
        <rect x="449.40586527293846" y="181.08264705301428" width="9.480952380952381" height="38.06812823641593" fill="#00FFD1" opacity="0.9"/>
<line x1="471.80487804878044" y1="166.02624300637478" x2="471.80487804878044" y2="206.97684299983973" stroke="#00FFD1" stroke-width="1" opacity="0.85"/>
        <rect x="467.0644018583042" y="169.51779710759126" width="9.480952380952381" height="17.490499748201046" fill="#00FFD1" opacity="0.9"/>
<line x1="489.4634146341463" y1="147.94396047750132" x2="489.4634146341463" y2="201.83783942949816" stroke="#FF2D95" stroke-width="1" opacity="0.85"/>
        <rect x="484.7229384436701" y="176.32482839799508" width="9.480952380952381" height="15.42057017441789" fill="#FF2D95" opacity="0.9"/>
<line x1="507.1219512195122" y1="116.34291836386552" x2="507.1219512195122" y2="235.57734278275063" stroke="#00FFD1" stroke-width="1" opacity="0.85"/>
        <rect x="502.381475029036" y="153.9526233751568" width="9.480952380952381" height="52.279648749335934" fill="#00FFD1" opacity="0.9"/>
<line x1="524.780487804878" y1="151.53623094193728" x2="524.780487804878" y2="211.66597309014975" stroke="#FF2D95" stroke-width="1" opacity="0.85"/>
        <rect x="520.0400116144018" y="167.38523480212206" width="9.480952380952381" height="27.97943936017157" fill="#FF2D95" opacity="0.9"/>
<line x1="542.439024390244" y1="182.49209406948842" x2="542.439024390244" y2="206.83453302282044" stroke="#00FFD1" stroke-width="1" opacity="0.85"/>
        <rect x="537.6985481997677" y="183.99664078874827" width="9.480952380952381" height="11.675012700709999" fill="#00FFD1" opacity="0.9"/>
<line x1="560.0975609756098" y1="179.45502153459972" x2="560.0975609756098" y2="202.52531815502238" stroke="#00FFD1" stroke-width="1" opacity="0.85"/>
        <rect x="555.3570847851336" y="183.31774824264488" width="9.480952380952381" height="4.920063423445981" fill="#00FFD1" opacity="0.9"/>
<line x1="577.7560975609756" y1="137.8584147098942" x2="577.7560975609756" y2="240.04934096938769" stroke="#FF2D95" stroke-width="1" opacity="0.85"/>
        <rect x="573.0156213704994" y="174.3856035491046" width="9.480952380952381" height="46.51605496836322" fill="#FF2D95" opacity="0.9"/>
<line x1="595.4146341463414" y1="195.5132675231411" x2="595.4146341463414" y2="264.47921973286265" stroke="#FF2D95" stroke-width="1" opacity="0.85"/>
        <rect x="590.6741579558652" y="232.6614994198669" width="9.480952380952381" height="15.979880648449523" fill="#FF2D95" opacity="0.9"/>
<line x1="613.0731707317074" y1="216.13741870606492" x2="613.0731707317074" y2="294.2772424292291" stroke="#FF2D95" stroke-width="1" opacity="0.85"/>
        <rect x="608.3326945412311" y="241.89002266282358" width="9.480952380952381" height="37.499110376989734" fill="#FF2D95" opacity="0.9"/>
<line x1="630.7317073170732" y1="242.6298488321869" x2="630.7317073170732" y2="342.52600064033686" stroke="#FF2D95" stroke-width="1" opacity="0.85"/>
        <rect x="625.991231126597" y="275.60597543157564" width="9.480952380952381" height="50.25641934928149" fill="#FF2D95" opacity="0.9"/>
<line x1="648.390243902439" y1="287.93519390484096" x2="648.390243902439" y2="350.76894596511073" stroke="#FF2D95" stroke-width="1" opacity="0.85"/>
        <rect x="643.6497677119628" y="311.4232199399899" width="9.480952380952381" height="34.56578793431561" fill="#FF2D95" opacity="0.9"/>
<line x1="666.0487804878048" y1="320.49125229456536" x2="666.0487804878048" y2="427.5356754156779" stroke="#FF2D95" stroke-width="1" opacity="0.85"/>
        <rect x="661.3083042973286" y="342.77848579509254" width="9.480952380952381" height="50.42870327368769" fill="#FF2D95" opacity="0.9"/>
<line x1="683.7073170731708" y1="326.20737493972655" x2="683.7073170731708" y2="406.07615817516466" stroke="#00FFD1" stroke-width="1" opacity="0.85"/>
        <rect x="678.9668408826946" y="362.01242539956843" width="9.480952380952381" height="25.84318909198481" fill="#00FFD1" opacity="0.9"/>
<line x1="701.3658536585366" y1="319.0754868859184" x2="701.3658536585366" y2="410.75916324917085" stroke="#FF2D95" stroke-width="1" opacity="0.85"/>
        <rect x="696.6253774680604" y="353.33555934948845" width="9.480952380952381" height="46.863282840344596" fill="#FF2D95" opacity="0.9"/>
<line x1="719.0243902439024" y1="346.03092856324133" x2="719.0243902439024" y2="444.51836732125884" stroke="#00FFD1" stroke-width="1" opacity="0.85"/>
        <rect x="714.2839140534262" y="360.30619211796477" width="9.480952380952381" height="51.22311429030748" fill="#00FFD1" opacity="0.9"/>
<line x1="736.6829268292682" y1="314.2962022934198" x2="736.6829268292682" y2="377.284478497049" stroke="#00FFD1" stroke-width="1" opacity="0.85"/>
        <rect x="731.942450638792" y="342.900171888621" width="9.480952380952381" height="30.69450265394073" fill="#00FFD1" opacity="0.9"/>
<line x1="754.3414634146342" y1="310.1789100017438" x2="754.3414634146342" y2="386.8467222008687" stroke="#FF2D95" stroke-width="1" opacity="0.85"/>
        <rect x="749.600987224158" y="336.6642681138587" width="9.480952380952381" height="16.368973817718597" fill="#FF2D95" opacity="0.9"/>
<line x1="772" y1="359.00081655823055" x2="772" y2="416.4690034391813" stroke="#FF2D95" stroke-width="1" opacity="0.85"/>
        <rect x="767.2595238095238" y="360.08851397032356" width="9.480952380952381" height="39.203327533144034" fill="#FF2D95" opacity="0.9"/>
    <circle cx="48" cy="518.7355034210151" r="3.5" fill="#00FFD1"/>
<circle cx="65.65853658536585" cy="537.4142704090336" r="3.5" fill="#00FFD1"/>
<circle cx="83.3170731707317" cy="503.21422705777064" r="3.5" fill="#00FFD1"/>
<circle cx="100.97560975609755" cy="467.8087203998624" r="3.5" fill="#00FFD1"/>
<circle cx="118.63414634146342" cy="413.606055630514" r="3.5" fill="#00FFD1"/>
<circle cx="136.2926829268293" cy="425.5019882474185" r="3.5" fill="#00FFD1"/>
<circle cx="153.9512195121951" cy="441.5169300269454" r="3.5" fill="#00FFD1"/>
<circle cx="171.609756097561" cy="381.00147961538323" r="3.5" fill="#00FFD1"/>
<circle cx="189.26829268292684" cy="342.9290723030446" r="3.5" fill="#00FFD1"/>
<circle cx="206.9268292682927" cy="176.02234659761126" r="3.5" fill="#FF2D95"/>
<circle cx="224.58536585365854" cy="132.76075647288343" r="3.5" fill="#FF2D95"/>
<circle cx="242.2439024390244" cy="126.39000299246231" r="3.5" fill="#FF2D95"/>
<circle cx="259.9024390243902" cy="148.06446173882807" r="3.5" fill="#FF2D95"/>
<circle cx="277.5609756097561" cy="144.2031543655242" r="3.5" fill="#FF2D95"/>
<circle cx="295.219512195122" cy="150.88962200422566" r="3.5" fill="#FF2D95"/>
<circle cx="312.8780487804878" cy="164.05033299797327" r="3.5" fill="#FF2D95"/>
<circle cx="330.5365853658537" cy="129.41681874819392" r="3.5" fill="#FF2D95"/>
<circle cx="348.1951219512195" cy="88.07274618620289" r="3.5" fill="#FF2D95"/>
<circle cx="365.8536585365854" cy="254.86581815378713" r="3.5" fill="#00FFD1"/>
<circle cx="383.5121951219512" cy="259.0396462311421" r="3.5" fill="#00FFD1"/>
<circle cx="401.1707317073171" cy="231.00250066044111" r="3.5" fill="#00FFD1"/>
<circle cx="418.8292682926829" cy="232.30532196661483" r="3.5" fill="#00FFD1"/>
<circle cx="436.4878048780488" cy="266.2727358372289" r="3.5" fill="#00FFD1"/>
<circle cx="454.1463414634147" cy="275.7382749617295" r="3.5" fill="#00FFD1"/>
<circle cx="471.80487804878044" cy="244.7340317727389" r="3.5" fill="#00FFD1"/>
<circle cx="489.4634146341463" cy="239.59502820239732" r="3.5" fill="#00FFD1"/>
<circle cx="507.1219512195122" cy="273.33453155564973" r="3.5" fill="#00FFD1"/>
<circle cx="524.780487804878" cy="113.77904216903812" r="3.5" fill="#FF2D95"/>
<circle cx="542.439024390244" cy="144.73490529658932" r="3.5" fill="#FF2D95"/>
<circle cx="560.0975609756098" cy="141.69783276170062" r="3.5" fill="#FF2D95"/>
<circle cx="577.7560975609756" cy="100.10122593699504" r="3.5" fill="#FF2D95"/>
<circle cx="595.4146341463414" cy="157.75607875024195" r="3.5" fill="#FF2D95"/>
<circle cx="613.0731707317074" cy="178.38022993316582" r="3.5" fill="#FF2D95"/>
<circle cx="630.7317073170732" cy="204.8726600592878" r="3.5" fill="#FF2D95"/>
<circle cx="648.390243902439" cy="250.17800513194186" r="3.5" fill="#FF2D95"/>
<circle cx="666.0487804878048" cy="282.73406352166626" r="3.5" fill="#FF2D95"/>
<circle cx="683.7073170731708" cy="443.83334694806376" r="3.5" fill="#00FFD1"/>
<circle cx="701.3658536585366" cy="448.51635202207" r="3.5" fill="#00FFD1"/>
<circle cx="719.0243902439024" cy="482.27555609415793" r="3.5" fill="#00FFD1"/>
<circle cx="736.6829268292682" cy="415.04166726994816" r="3.5" fill="#00FFD1"/>
<circle cx="754.3414634146342" cy="424.6039109737679" r="3.5" fill="#00FFD1"/>
<circle cx="772" cy="454.2261922120804" r="3.5" fill="#00FFD1"/>
  
</svg>
