<?xml version="1.0" encoding="UTF-8"?>
<svg xmlns="http://www.w3.org/2000/svg" width="800" height="600" viewBox="0 0 800 600" role="img">

    
  <defs>
    <linearGradient id="bg" x1="0" y1="0" x2="1" y2="1">
      <stop offset="0%" stop-color="#071226"/>
      <stop offset="55%" stop-color="#0A1C3A"/>
      <stop offset="100%" stop-color="#06101f"/>
    </linearGradient>
    <linearGradient id="cyanFill" x1="0" y1="0" x2="0" y2="1">
      <stop offset="0%" stop-color="#00B6FF" stop-opacity="0.35"/>
      <stop offset="100%" stop-color="#00B6FF" stop-opacity="0.02"/>
    </linearGradient>
    <linearGradient id="tealFill" x1="0" y1="0" x2="0" y2="1">
      <stop offset="0%" stop-color="#00FFD1" stop-opacity="0.28"/>
      <stop offset="100%" stop-color="#00FFD1" stop-opacity="0.02"/>
    </linearGradient>
    <linearGradient id="magentaFill" x1="0" y1="0" x2="0" y2="1">
      <stop offset="0%" stop-color="#D946EF" stop-opacity="0.3"/>
      <stop offset="100%" stop-color="#D946EF" stop-opacity="0.02"/>
    </linearGradient>
    <linearGradient id="cloudUp" x1="0" y1="0" x2="0" y2="1">
      <stop offset="0%" stop-color="#00FFD1" stop-opacity="0.35"/>
      <stop offset="100%" stop-color="#00FFD1" stop-opacity="0.08"/>
    </linearGradient>
    <linearGradient id="cloudDn" x1="0" y1="0" x2="0" y2="1">
      <stop offset="0%" stop-color="#FF2D95" stop-opacity="0.28"/>
      <stop offset="100%" stop-color="#FF2D95" stop-opacity="0.06"/>
    </linearGradient>
    <pattern id="grid" width="40" height="40" patternUnits="userSpaceOnUse">
      <path d="M40 0H0V40" fill="none" stroke="#00B6FF" stroke-opacity="0.07" stroke-width="1"/>
    </pattern>
  </defs>
  <rect width="800" height="600" fill="url(#bg)"/>
  <rect x="48" y="56" width="724" height="504" fill="url(#grid)" rx="8"/>
  <rect x="48" y="56" width="724" height="504" fill="none" stroke="#00B6FF" stroke-opacity="0.25" rx="8"/>
  <text x="48" y="28" fill="#00FFD1" font-family="ui-monospace, SFMono-Regular, Menlo, monospace" font-size="13" font-weight="700" letter-spacing="2">PUT CALL RATIO</text>
  <text x="48" y="46" fill="#00B6FF" fill-opacity="0.7" font-family="ui-monospace, SFMono-Regular, Menlo, monospace" font-size="10" letter-spacing="1.5">OPTIONS / DERIVATIVES</text>
  <circle cx="764" cy="28" r="5" fill="#00FFD1"/>
  <text x="752" y="32" text-anchor="end" fill="#00FFD1" fill-opacity="0.8" font-family="ui-monospace, SFMono-Regular, Menlo, monospace" font-size="9" letter-spacing="1">LIVE</text>
    <line x1="48" y1="308.00000000000006" x2="772" y2="308.00000000000006" stroke="#00B6FF" stroke-opacity="0.55" stroke-width="1" stroke-dasharray="4 4"/><text x="54" y="304.00000000000006" fill="#00B6FF" fill-opacity="0.85" font-family="ui-monospace, Menlo, monospace" font-size="9">0</text>
    <path d="M48.0,324.0 L62.8,290.6 L77.6,237.0 L92.3,230.9 L107.1,190.4 L121.9,176.7 L136.7,160.0 L151.4,142.6 L166.2,131.9 L181.0,118.6 L195.8,128.3 L210.5,127.3 L225.3,155.1 L240.1,146.6 L254.9,167.2 L269.6,202.3 L284.4,205.0 L299.2,255.4 L314.0,276.7 L328.7,293.2 L343.5,344.1 L358.3,368.3 L373.1,389.3 L387.8,406.2 L402.6,430.6 L417.4,464.7 L432.2,461.8 L446.9,488.6 L461.7,494.0 L476.5,501.5 L491.3,486.2 L506.0,479.7 L520.8,472.5 L535.6,468.3 L550.4,425.5 L565.1,424.6 L579.9,386.1 L594.7,353.2 L609.5,318.2 L624.2,289.3 L639.0,261.1 L653.8,241.1 L668.6,202.0 L683.3,186.8 L698.1,154.1 L712.9,148.0 L727.7,125.6 L742.4,132.5 L757.2,114.5 L772.0,143.7" fill="none" stroke="#D946EF" stroke-width="3"/>
    <path d="M48.0,324.0 L62.8,290.6 L77.6,237.0 L92.3,230.9 L107.1,190.4 L121.9,176.7 L136.7,160.0 L151.4,142.6 L166.2,131.9 L181.0,118.6 L195.8,128.3 L210.5,127.3 L225.3,155.1 L240.1,146.6 L254.9,167.2 L269.6,202.3 L284.4,205.0 L299.2,255.4 L314.0,276.7 L328.7,293.2 L343.5,344.1 L358.3,368.3 L373.1,389.3 L387.8,406.2 L402.6,430.6 L417.4,464.7 L432.2,461.8 L446.9,488.6 L461.7,494.0 L476.5,501.5 L491.3,486.2 L506.0,479.7 L520.8,472.5 L535.6,468.3 L550.4,425.5 L565.1,424.6 L579.9,386.1 L594.7,353.2 L609.5,318.2 L624.2,289.3 L639.0,261.1 L653.8,241.1 L668.6,202.0 L683.3,186.8 L698.1,154.1 L712.9,148.0 L727.7,125.6 L742.4,132.5 L757.2,114.5 L772.0,143.7 L772.0,308.0 L757.2,308.0 L742.4,308.0 L727.7,308.0 L712.9,308.0 L698.1,308.0 L683.3,308.0 L668.6,308.0 L653.8,308.0 L639.0,308.0 L624.2,308.0 L609.5,308.0 L594.7,308.0 L579.9,308.0 L565.1,308.0 L550.4,308.0 L535.6,308.0 L520.8,308.0 L506.0,308.0 L491.3,308.0 L476.5,308.0 L461.7,308.0 L446.9,308.0 L432.2,308.0 L417.4,308.0 L402.6,308.0 L387.8,308.0 L373.1,308.0 L358.3,308.0 L343.5,308.0 L328.7,308.0 L314.0,308.0 L299.2,308.0 L284.4,308.0 L269.6,308.0 L254.9,308.0 L240.1,308.0 L225.3,308.0 L210.5,308.0 L195.8,308.0 L181.0,308.0 L166.2,308.0 L151.4,308.0 L136.7,308.0 L121.9,308.0 L107.1,308.0 L92.3,308.0 L77.6,308.0 L62.8,308.0 L48.0,308.0 Z" fill="url(#magentaFill)"/>
  
</svg>
