<?xml version="1.0" encoding="UTF-8"?>
<svg xmlns="http://www.w3.org/2000/svg" width="800" height="600" viewBox="0 0 800 600" role="img">

    
  <defs>
    <linearGradient id="bg" x1="0" y1="0" x2="1" y2="1">
      <stop offset="0%" stop-color="#071226"/>
      <stop offset="55%" stop-color="#0A1C3A"/>
      <stop offset="100%" stop-color="#06101f"/>
    </linearGradient>
    <linearGradient id="cyanFill" x1="0" y1="0" x2="0" y2="1">
      <stop offset="0%" stop-color="#00B6FF" stop-opacity="0.35"/>
      <stop offset="100%" stop-color="#00B6FF" stop-opacity="0.02"/>
    </linearGradient>
    <linearGradient id="tealFill" x1="0" y1="0" x2="0" y2="1">
      <stop offset="0%" stop-color="#00FFD1" stop-opacity="0.28"/>
      <stop offset="100%" stop-color="#00FFD1" stop-opacity="0.02"/>
    </linearGradient>
    <linearGradient id="magentaFill" x1="0" y1="0" x2="0" y2="1">
      <stop offset="0%" stop-color="#D946EF" stop-opacity="0.3"/>
      <stop offset="100%" stop-color="#D946EF" stop-opacity="0.02"/>
    </linearGradient>
    <linearGradient id="cloudUp" x1="0" y1="0" x2="0" y2="1">
      <stop offset="0%" stop-color="#00FFD1" stop-opacity="0.35"/>
      <stop offset="100%" stop-color="#00FFD1" stop-opacity="0.08"/>
    </linearGradient>
    <linearGradient id="cloudDn" x1="0" y1="0" x2="0" y2="1">
      <stop offset="0%" stop-color="#FF2D95" stop-opacity="0.28"/>
      <stop offset="100%" stop-color="#FF2D95" stop-opacity="0.06"/>
    </linearGradient>
    <pattern id="grid" width="40" height="40" patternUnits="userSpaceOnUse">
      <path d="M40 0H0V40" fill="none" stroke="#00B6FF" stroke-opacity="0.07" stroke-width="1"/>
    </pattern>
  </defs>
  <rect width="800" height="600" fill="url(#bg)"/>
  <rect x="48" y="56" width="724" height="504" fill="url(#grid)" rx="8"/>
  <rect x="48" y="56" width="724" height="504" fill="none" stroke="#00B6FF" stroke-opacity="0.25" rx="8"/>
  <text x="48" y="28" fill="#00FFD1" font-family="ui-monospace, SFMono-Regular, Menlo, monospace" font-size="13" font-weight="700" letter-spacing="2">TRIX</text>
  <text x="48" y="46" fill="#00B6FF" fill-opacity="0.7" font-family="ui-monospace, SFMono-Regular, Menlo, monospace" font-size="10" letter-spacing="1.5">TECHNICAL MODEL</text>
  <circle cx="764" cy="28" r="5" fill="#00FFD1"/>
  <text x="752" y="32" text-anchor="end" fill="#00FFD1" fill-opacity="0.8" font-family="ui-monospace, SFMono-Regular, Menlo, monospace" font-size="9" letter-spacing="1">LIVE</text>
    <line x1="48" y1="412.42205040528154" x2="48" y2="447.53733889239606" stroke="#00FFD1" stroke-width="1" opacity="0.85"/>
        <rect x="43.85208333333333" y="438.01060238251506" width="8.295833333333334" height="1.5" fill="#00FFD1" opacity="0.9"/>
<line x1="63.40425531914894" y1="386.7341880320296" x2="63.40425531914894" y2="456.15149041862105" stroke="#00FFD1" stroke-width="1" opacity="0.85"/>
        <rect x="59.25633865248227" y="402.7779771212019" width="8.295833333333334" height="45.2996727674597" fill="#00FFD1" opacity="0.9"/>
<line x1="78.80851063829788" y1="384.7852030504167" x2="78.80851063829788" y2="427.6715839244295" stroke="#FF2D95" stroke-width="1" opacity="0.85"/>
        <rect x="74.66059397163122" y="389.15913809797587" width="8.295833333333334" height="5.831436435765738" fill="#FF2D95" opacity="0.9"/>
<line x1="94.2127659574468" y1="368.8821172440129" x2="94.2127659574468" y2="421.9784155588368" stroke="#00FFD1" stroke-width="1" opacity="0.85"/>
        <rect x="90.06484929078013" y="381.9360543587354" width="8.295833333333334" height="7.007262866560211" fill="#00FFD1" opacity="0.9"/>
<line x1="109.61702127659575" y1="331.9895158287302" x2="109.61702127659575" y2="389.4218829551578" stroke="#00FFD1" stroke-width="1" opacity="0.85"/>
        <rect x="105.46910460992908" y="365.3881550952035" width="8.295833333333334" height="6.355907122766325" fill="#00FFD1" opacity="0.9"/>
<line x1="125.02127659574468" y1="372.99802562408564" x2="125.02127659574468" y2="436.0127372614772" stroke="#FF2D95" stroke-width="1" opacity="0.85"/>
        <rect x="120.87335992907802" y="379.846156364316" width="8.295833333333334" height="40.364067770007125" fill="#FF2D95" opacity="0.9"/>
<line x1="140.4255319148936" y1="389.8226050245263" x2="140.4255319148936" y2="418.5040838438291" stroke="#FF2D95" stroke-width="1" opacity="0.85"/>
        <rect x="136.27761524822694" y="414.597463845275" width="8.295833333333334" height="1.5" fill="#FF2D95" opacity="0.9"/>
<line x1="155.82978723404256" y1="384.586715430662" x2="155.82978723404256" y2="474.26129687989555" stroke="#FF2D95" stroke-width="1" opacity="0.85"/>
        <rect x="151.68187056737588" y="400.37538186543196" width="8.295833333333334" height="48.276954873021225" fill="#FF2D95" opacity="0.9"/>
<line x1="171.2340425531915" y1="411.49192487534486" x2="171.2340425531915" y2="482.1661630158213" stroke="#00FFD1" stroke-width="1" opacity="0.85"/>
        <rect x="167.08612588652483" y="446.1348565762023" width="8.295833333333334" height="5.410010721378342" fill="#00FFD1" opacity="0.9"/>
<line x1="186.63829787234042" y1="414.693939424557" x2="186.63829787234042" y2="461.34147492404134" stroke="#FF2D95" stroke-width="1" opacity="0.85"/>
        <rect x="182.49038120567374" y="437.0884954101164" width="8.295833333333334" height="16.83280271897553" fill="#FF2D95" opacity="0.9"/>
<line x1="202.04255319148936" y1="435.7890060107182" x2="202.04255319148936" y2="498.20952685348686" stroke="#00FFD1" stroke-width="1" opacity="0.85"/>
        <rect x="197.8946365248227" y="453.17934353461624" width="8.295833333333334" height="13.611778606439316" fill="#00FFD1" opacity="0.9"/>
<line x1="217.4468085106383" y1="444.53682033436223" x2="217.4468085106383" y2="491.49135312585713" stroke="#00FFD1" stroke-width="1" opacity="0.85"/>
        <rect x="213.29889184397163" y="458.23858972836297" width="8.295833333333334" height="3.671614974981253" fill="#00FFD1" opacity="0.9"/>
<line x1="232.85106382978722" y1="402.6857077702505" x2="232.85106382978722" y2="474.3065403750407" stroke="#00FFD1" stroke-width="1" opacity="0.85"/>
        <rect x="228.70314716312055" y="432.55579728581296" width="8.295833333333334" height="19.066623507302324" fill="#00FFD1" opacity="0.9"/>
<line x1="248.25531914893617" y1="410.0775553739673" x2="248.25531914893617" y2="443.8403714702752" stroke="#00FFD1" stroke-width="1" opacity="0.85"/>
        <rect x="244.1074024822695" y="417.0414668021787" width="8.295833333333334" height="24.871849281283176" fill="#00FFD1" opacity="0.9"/>
<line x1="263.6595744680851" y1="380.27311679219383" x2="263.6595744680851" y2="418.61037880078925" stroke="#00FFD1" stroke-width="1" opacity="0.85"/>
        <rect x="259.51165780141844" y="386.634200655483" width="8.295833333333334" height="26.71587360153751" fill="#00FFD1" opacity="0.9"/>
<line x1="279.06382978723406" y1="374.2389161977905" x2="279.06382978723406" y2="399.42652973880513" stroke="#FF2D95" stroke-width="1" opacity="0.85"/>
        <rect x="274.9159131205674" y="390.1050249590388" width="8.295833333333334" height="1.841278490714103" fill="#FF2D95" opacity="0.9"/>
<line x1="294.468085106383" y1="367.7905256784651" x2="294.468085106383" y2="435.0315365778053" stroke="#FF2D95" stroke-width="1" opacity="0.85"/>
        <rect x="290.3201684397163" y="397.3500293680082" width="8.295833333333334" height="36.67857411228698" fill="#FF2D95" opacity="0.9"/>
<line x1="309.87234042553195" y1="423.520623770602" x2="309.87234042553195" y2="451.3258219348296" stroke="#00FFD1" stroke-width="1" opacity="0.85"/>
        <rect x="305.72442375886527" y="424.9085139337071" width="8.295833333333334" height="6.528606829458795" fill="#00FFD1" opacity="0.9"/>
<line x1="325.27659574468083" y1="392.6778241218148" x2="325.27659574468083" y2="460.2017294800767" stroke="#00FFD1" stroke-width="1" opacity="0.85"/>
        <rect x="321.12867907801416" y="409.3544761268243" width="8.295833333333334" height="23.795249537036057" fill="#00FFD1" opacity="0.9"/>
<line x1="340.6808510638298" y1="344.9435445488069" x2="340.6808510638298" y2="399.79491576010724" stroke="#00FFD1" stroke-width="1" opacity="0.85"/>
        <rect x="336.5329343971631" y="376.58534461315577" width="8.295833333333334" height="23.203507672353624" fill="#00FFD1" opacity="0.9"/>
<line x1="356.0851063829787" y1="306.7222133647722" x2="356.0851063829787" y2="428.3343499359016" stroke="#00FFD1" stroke-width="1" opacity="0.85"/>
        <rect x="351.93718971631205" y="328.9524740646248" width="8.295833333333334" height="62.17811426107727" fill="#00FFD1" opacity="0.9"/>
<line x1="371.48936170212767" y1="315.62699605269586" x2="371.48936170212767" y2="386.38619044312463" stroke="#FF2D95" stroke-width="1" opacity="0.85"/>
        <rect x="367.341445035461" y="343.14084313016804" width="8.295833333333334" height="11.521198665930797" fill="#FF2D95" opacity="0.9"/>
<line x1="386.8936170212766" y1="273.92883489586" x2="386.8936170212766" y2="365.783416997788" stroke="#00FFD1" stroke-width="1" opacity="0.85"/>
        <rect x="382.74570035460994" y="311.099312511181" width="8.295833333333334" height="35.62883004903654" fill="#00FFD1" opacity="0.9"/>
<line x1="402.2978723404255" y1="274.3030154045653" x2="402.2978723404255" y2="360.8472413077085" stroke="#FF2D95" stroke-width="1" opacity="0.85"/>
        <rect x="398.1499556737588" y="304.6413787169721" width="8.295833333333334" height="31.270194166423266" fill="#FF2D95" opacity="0.9"/>
<line x1="417.70212765957444" y1="262.94048802529414" x2="417.70212765957444" y2="360.09519021992855" stroke="#00FFD1" stroke-width="1" opacity="0.85"/>
        <rect x="413.55421099290777" y="300.7814780873588" width="8.295833333333334" height="29.47706503225129" fill="#00FFD1" opacity="0.9"/>
<line x1="433.1063829787234" y1="256.4798641235919" x2="433.1063829787234" y2="376.3382475662701" stroke="#FF2D95" stroke-width="1" opacity="0.85"/>
        <rect x="428.9584663120567" y="286.9540662024235" width="8.295833333333334" height="62.72750662073622" fill="#FF2D95" opacity="0.9"/>
<line x1="448.51063829787233" y1="311.8675963994631" x2="448.51063829787233" y2="363.6461506369035" stroke="#00FFD1" stroke-width="1" opacity="0.85"/>
        <rect x="444.36272163120566" y="331.3917773295646" width="8.295833333333334" height="8.02483278189112" fill="#00FFD1" opacity="0.9"/>
<line x1="463.91489361702133" y1="318.84605115184263" x2="463.91489361702133" y2="346.18377484309804" stroke="#FF2D95" stroke-width="1" opacity="0.85"/>
        <rect x="459.76697695035466" y="334.08434981738696" width="8.295833333333334" height="10.489778872521015" fill="#FF2D95" opacity="0.9"/>
<line x1="479.31914893617017" y1="308.80876193784945" x2="479.31914893617017" y2="388.1073040575644" stroke="#00FFD1" stroke-width="1" opacity="0.85"/>
        <rect x="475.1712322695035" y="327.49327693809187" width="8.295833333333334" height="24.59682191866557" fill="#00FFD1" opacity="0.9"/>
<line x1="494.72340425531917" y1="321.2452162952079" x2="494.72340425531917" y2="370.9525741889713" stroke="#FF2D95" stroke-width="1" opacity="0.85"/>
        <rect x="490.5754875886525" y="333.190245878522" width="8.295833333333334" height="3.698917479238162" fill="#FF2D95" opacity="0.9"/>
<line x1="510.1276595744681" y1="336.9953721293566" x2="510.1276595744681" y2="374.3180940449779" stroke="#FF2D95" stroke-width="1" opacity="0.85"/>
        <rect x="505.97974290780144" y="345.3111622131159" width="8.295833333333334" height="15.784793031393349" fill="#FF2D95" opacity="0.9"/>
<line x1="525.531914893617" y1="324.8789344876549" x2="525.531914893617" y2="406.96967945152335" stroke="#00FFD1" stroke-width="1" opacity="0.85"/>
        <rect x="521.3839982269503" y="356.09776643836517" width="8.295833333333334" height="18.842561395891323" fill="#00FFD1" opacity="0.9"/>
<line x1="540.936170212766" y1="338.5074431094238" x2="540.936170212766" y2="411.49761243092894" stroke="#FF2D95" stroke-width="1" opacity="0.85"/>
        <rect x="536.7882535460993" y="351.70437680197904" width="8.295833333333334" height="49.67461229954205" fill="#FF2D95" opacity="0.9"/>
<line x1="556.3404255319149" y1="311.98653755469377" x2="556.3404255319149" y2="414.139477697071" stroke="#00FFD1" stroke-width="1" opacity="0.85"/>
        <rect x="552.1925088652482" y="349.12910046520415" width="8.295833333333334" height="46.920666004453096" fill="#00FFD1" opacity="0.9"/>
<line x1="571.7446808510639" y1="297.9533575585061" x2="571.7446808510639" y2="358.16316488823713" stroke="#00FFD1" stroke-width="1" opacity="0.85"/>
        <rect x="567.5967641843972" y="312.53977242780746" width="8.295833333333334" height="44.299678634259806" fill="#00FFD1" opacity="0.9"/>
<line x1="587.1489361702128" y1="243.466712262616" x2="587.1489361702128" y2="335.7448455946852" stroke="#00FFD1" stroke-width="1" opacity="0.85"/>
        <rect x="583.0010195035461" y="258.684802116587" width="8.295833333333334" height="41.64258050227107" fill="#00FFD1" opacity="0.9"/>
<line x1="602.5531914893617" y1="178.07492163276913" x2="602.5531914893617" y2="300.8686018976008" stroke="#00FFD1" stroke-width="1" opacity="0.85"/>
        <rect x="598.405274822695" y="208.5626218375794" width="8.295833333333334" height="61.955874666665295" fill="#00FFD1" opacity="0.9"/>
<line x1="617.9574468085107" y1="168.51255614733395" x2="617.9574468085107" y2="227.54477986920762" stroke="#00FFD1" stroke-width="1" opacity="0.85"/>
        <rect x="613.809530141844" y="179.68016517642565" width="8.295833333333334" height="40.77241714407501" fill="#00FFD1" opacity="0.9"/>
<line x1="633.3617021276596" y1="162.27290232527952" x2="633.3617021276596" y2="227.12707224034313" stroke="#FF2D95" stroke-width="1" opacity="0.85"/>
        <rect x="629.2137854609929" y="179.09476236309115" width="8.295833333333334" height="28.371995045131257" fill="#FF2D95" opacity="0.9"/>
<line x1="648.7659574468084" y1="157.2072851144556" x2="648.7659574468084" y2="251.41552044852375" stroke="#00FFD1" stroke-width="1" opacity="0.85"/>
        <rect x="644.6180407801418" y="191.73919430928015" width="8.295833333333334" height="22.621337069809442" fill="#00FFD1" opacity="0.9"/>
<line x1="664.1702127659574" y1="173.54746120578915" x2="664.1702127659574" y2="217.8943883544839" stroke="#FF2D95" stroke-width="1" opacity="0.85"/>
        <rect x="660.0222960992908" y="179.1806626816026" width="8.295833333333334" height="11.27568874988134" fill="#FF2D95" opacity="0.9"/>
<line x1="679.5744680851064" y1="139.73346104599113" x2="679.5744680851064" y2="197.14948689129398" stroke="#00FFD1" stroke-width="1" opacity="0.85"/>
        <rect x="675.4265514184398" y="147.74239464411892" width="8.295833333333334" height="29.296766166363625" fill="#00FFD1" opacity="0.9"/>
<line x1="694.9787234042553" y1="120.4661267116154" x2="694.9787234042553" y2="226.231233201228" stroke="#FF2D95" stroke-width="1" opacity="0.85"/>
        <rect x="690.8308067375887" y="143.06155420382913" width="8.295833333333334" height="52.46551213627487" fill="#FF2D95" opacity="0.9"/>
<line x1="710.3829787234042" y1="169.65377630853516" x2="710.3829787234042" y2="223.6301403534291" stroke="#FF2D95" stroke-width="1" opacity="0.85"/>
        <rect x="706.2350620567375" y="180.0723718059312" width="8.295833333333334" height="24.46692498018467" fill="#FF2D95" opacity="0.9"/>
<line x1="725.7872340425532" y1="122.51261001823326" x2="725.7872340425532" y2="226.50799808469105" stroke="#00FFD1" stroke-width="1" opacity="0.85"/>
        <rect x="721.6393173758865" y="156.51855082994524" width="8.295833333333334" height="62.00284257166737" fill="#00FFD1" opacity="0.9"/>
<line x1="741.1914893617021" y1="128.3454230194705" x2="741.1914893617021" y2="176.2418683552399" stroke="#00FFD1" stroke-width="1" opacity="0.85"/>
        <rect x="737.0435726950354" y="157.90366375042407" width="8.295833333333334" height="13.94555419473545" fill="#00FFD1" opacity="0.9"/>
<line x1="756.595744680851" y1="117.7904731465132" x2="756.595744680851" y2="204.03931314133337" stroke="#FF2D95" stroke-width="1" opacity="0.85"/>
        <rect x="752.4478280141843" y="143.33808347529686" width="8.295833333333334" height="31.731780565961742" fill="#FF2D95" opacity="0.9"/>
<line x1="772" y1="165.3254776249708" x2="772" y2="230.21046017742577" stroke="#FF2D95" stroke-width="1" opacity="0.85"/>
        <rect x="767.8520833333333" y="166.57646476454283" width="8.295833333333334" height="53.79547681646892" fill="#FF2D95" opacity="0.9"/>
    <path d="M48.0,438.0 L63.4,432.6 L78.8,426.8 L94.2,419.9 L109.6,411.5 L125.0,412.9 L140.4,413.2 L155.8,418.7 L171.2,422.9 L186.6,427.7 L202.0,431.6 L217.4,435.7 L232.9,435.2 L248.3,432.4 L263.7,425.4 L279.1,420.2 L294.5,422.4 L309.9,422.7 L325.3,420.7 L340.7,413.9 L356.1,400.8 L371.5,393.7 L386.9,381.0 L402.3,374.1 L417.7,362.8 L433.1,360.8 L448.5,356.3 L463.9,354.5 L479.3,350.3 L494.7,348.2 L510.1,350.2 L525.5,351.1 L540.9,358.9 L556.3,357.4 L571.7,350.5 L587.1,336.3 L602.6,316.7 L618.0,295.6 L633.4,282.0 L648.8,268.2 L664.2,256.2 L679.6,239.5 L695.0,232.7 L710.4,228.4 L725.8,217.3 L741.2,208.2 L756.6,203.1 L772.0,205.8" fill="none" stroke="#00B6FF" stroke-width="2"/>
  
</svg>
